<?xml version="1.0" encoding="UTF-8"?>
<svg width="27px" height="27px" viewBox="0 0 27 27" version="1.1" xmlns="http://www.w3.org/2000/svg" xmlns:xlink="http://www.w3.org/1999/xlink">
    <!-- Generator: sketchtool 55.2 (78181) - https://sketchapp.com -->
    <title>95DE3EEC-1939-4F95-A760-EDF3AD5EE12E</title>
    <desc>Created with sketchtool.</desc>
    <g id="Page-1" stroke="none" stroke-width="1" fill="none" fill-rule="evenodd">
        <g id="6.-Edit_Billing_PerTransaction" transform="translate(-16.000000, -152.000000)" fill="#FFFFFF">
            <g id="LeftNav_Off">
                <g id="Group" transform="translate(0.000000, 20.000000)">
                    <g id="api" transform="translate(16.000000, 132.000000)">
                        <path d="M26.3609639,16.3574031 L25.4031374,15.8196751 C25.5639888,15.0417476 25.6453926,14.2627632 25.6453926,13.5 C25.6453926,12.7261409 25.565293,11.9464168 25.4071587,11.178 L26.3609639,10.642544 C26.6563652,10.4767397 26.8677,10.2089589 26.9559509,9.8886047 C27.0442018,9.56825049 26.9989352,9.23363014 26.8283566,8.94640509 L24.219956,4.55354207 C24.0493775,4.26631703 23.7740282,4.0608317 23.4445546,3.97502348 C23.1150266,3.88921526 22.7709351,3.93322896 22.4754794,4.09908611 L21.5209135,4.63496477 C20.3151259,3.6035225 18.8960473,2.80525245 17.3854573,2.30857926 L17.3854573,1.24168297 C17.3854573,0.557013699 16.8125873,0 16.1084278,0 L10.8916265,0 C10.1874671,0 9.61459706,0.557013699 9.61459706,1.24168297 L9.61459706,2.30863209 C8.11204962,2.80329746 6.69492729,3.60262427 5.48468374,4.63813503 L4.5245206,4.09908611 C4.22906488,3.93322896 3.88491902,3.88916243 3.55544542,3.97502348 C3.22597181,4.06088454 2.95062252,4.26631703 2.78004399,4.55354207 L0.171643358,8.94640509 C0.00106482506,9.23363014 -0.0442017942,9.56825049 0.0440490938,9.8886047 C0.132299982,10.2089589 0.343634775,10.4767397 0.639036146,10.642544 L1.5968626,11.180272 C1.43611991,11.9581996 1.35466173,12.737184 1.35466173,13.5 C1.35466173,14.2737534 1.43476136,15.0534775 1.59289565,15.8219472 L0.639090488,16.3574031 C0.0292681569,16.6997378 -0.180382044,17.4605988 0.171643358,18.0535949 L2.78004399,22.4464579 C3.13212373,23.0393483 3.91464392,23.2432485 4.5245206,22.9009139 L5.4790322,22.3650352 C6.68487408,23.3964775 8.10389836,24.1947476 9.61459706,24.6914736 L9.61459706,25.758317 C9.61459706,26.4429863 10.1874671,27 10.8916265,27 L16.1084278,27 C16.8125873,27 17.3854573,26.4429863 17.3854573,25.758317 L17.3854573,24.6913679 C18.8880591,24.1967025 20.3051814,23.3973757 21.5154249,22.3619178 L22.4755337,22.9009139 C23.0853017,23.2432485 23.8679306,23.0393483 24.2200104,22.4464579 L26.828411,18.0535949 C27.1804364,17.4605988 26.9707862,16.6997378 26.3609639,16.3574031 Z M25.9387138,17.5894491 L23.3682644,21.9105509 C23.2427944,22.1215696 22.9638471,22.1940748 22.7464834,22.0722453 L21.5473688,21.4003119 C21.3950162,21.3149168 21.2030357,21.3357588 21.0738706,21.4517152 C19.847927,22.552183 18.3729174,23.3824844 16.8083706,23.8529106 C16.6402204,23.9034823 16.5255676,24.0544179 16.5255676,24.2252599 L16.5255676,25.5582121 C16.5255676,25.8018191 16.3213776,26 16.0703839,26 L10.9294852,26 C10.6784915,26 10.4743015,25.8018191 10.4743015,25.5582121 L10.4743015,24.2253119 C10.4743015,24.0544699 10.3596487,23.9035343 10.191552,23.8529626 C8.61736602,23.3796258 7.14053577,22.5503638 5.9205898,21.4548857 C5.84449379,21.3865385 5.74654896,21.3511954 5.64774732,21.3511954 C5.57888069,21.3511954 5.50963921,21.3683472 5.44703806,21.4034304 L4.25338565,22.0722453 C4.03596848,22.1940229 3.75707472,22.1215177 3.63160466,21.9105509 L1.06115532,17.5894491 C0.935685262,17.3784823 1.0104425,17.1077443 1.22775257,16.9859148 L2.42044106,16.3175676 C2.57274019,16.2322245 2.65012142,16.0607069 2.61140403,15.8941788 C2.42767045,15.1037942 2.33454521,14.2982328 2.33454521,13.5 C2.33454521,12.7151767 2.42906278,11.910395 2.61552746,11.1080042 C2.6541913,10.9415281 2.57681007,10.7699584 2.42456449,10.6846674 L1.22775257,10.0140333 C1.12247125,9.95504158 1.0471785,9.85977131 1.0156905,9.74579002 C0.984256044,9.63180873 1.0003749,9.51273389 1.06115532,9.41055094 L3.63160466,5.08939709 C3.69238508,4.98721414 3.79054411,4.91408524 3.90803507,4.88357588 C4.02541892,4.85301455 4.14815788,4.86871102 4.2534392,4.9277027 L5.45255382,5.59963617 C5.60496004,5.68508316 5.79688693,5.66418919 5.92605201,5.54823285 C7.15204924,4.44776507 8.62700521,3.61746362 10.191552,3.14703742 C10.3597023,3.0964657 10.474355,2.94553015 10.474355,2.77468815 L10.474355,1.44178794 C10.474355,1.19818087 10.6785451,1 10.9295388,1 L16.0704374,1 C16.3214311,1 16.5256212,1.19818087 16.5256212,1.44178794 L16.5256212,2.77468815 C16.5256212,2.94553015 16.6402739,3.0964657 16.8083706,3.14703742 C18.3825031,3.62032225 19.8593333,4.4495842 21.0793328,5.54511435 C21.2084979,5.66112266 21.4004784,5.68196466 21.5528846,5.59656965 L22.746537,4.9277027 C22.8518719,4.86871102 22.9745573,4.85301455 23.0919411,4.88357588 C23.2093785,4.91413721 23.3075376,4.98721414 23.3683715,5.08939709 L25.9388209,9.41055094 C25.9996013,9.51273389 26.0157737,9.63180873 25.9842857,9.74579002 C25.9527977,9.85977131 25.877505,9.95504158 25.7722236,10.0140333 L24.5795351,10.6823805 C24.427236,10.7677235 24.3498548,10.9392931 24.3885722,11.1057692 C24.5723057,11.8961019 24.665431,12.7016112 24.665431,13.5 C24.665431,14.2848233 24.5709134,15.089605 24.3844487,15.8919439 C24.3457849,16.05842 24.4231661,16.2299376 24.5754117,16.3152807 L25.7722236,16.9859148 C25.9894802,17.1077443 26.0642374,17.3784823 25.9387138,17.5894491 Z" id="Shape" fill-rule="nonzero"></path>
                        <path d="M13.4726027,5 C8.78565224,5 4.97260274,8.81310561 4.97260274,13.5 C4.97260274,18.1868944 8.78565224,22 13.4726027,22 C18.1595532,22 21.9726027,18.1868944 21.9726027,13.5 C21.9726027,8.81310561 18.1595532,5 13.4726027,5 Z M13.4726027,21.1584158 C9.24975786,21.1584158 5.8141869,17.7228449 5.8141869,13.5 C5.8141869,9.27715512 9.24975786,5.84158416 13.4726027,5.84158416 C17.6954476,5.84158416 21.1310186,9.27715512 21.1310186,13.5 C21.1310186,17.7228449 17.6954476,21.1584158 13.4726027,21.1584158 Z" id="Shape" fill-rule="nonzero"></path>
                        <path d="M15.2539683,11 L13.4761905,11 C13.2132063,11 13,11.1700253 13,11.3797468 L13,14.6202532 C13,14.8299747 13.2132063,15 13.4761905,15 C13.7391746,15 13.952381,14.8299747 13.952381,14.6202532 L13.952381,13.7848101 L15.2539683,13.7848101 C16.2167619,13.7848101 17,13.1602025 17,12.3924051 C17,11.6246076 16.2167619,11 15.2539683,11 Z M15.2539683,13.0253165 L13.952381,13.0253165 L13.952381,11.7594937 L15.2539683,11.7594937 C15.691619,11.7594937 16.047619,12.0433924 16.047619,12.3924051 C16.047619,12.7414177 15.691619,13.0253165 15.2539683,13.0253165 Z" id="Shape" fill-rule="nonzero"></path>
                        <path d="M10.5935665,11.2464218 C10.5317096,11.0982244 10.3740814,11 10.197975,11 L9.74728682,11 C9.57118042,11 9.4134959,11.0981738 9.35169529,11.2464218 L7.99963078,14.4868147 C7.91766187,14.6831622 8.02841849,14.9020406 8.24688958,14.975709 C8.46536067,15.0493773 8.70890129,14.9498364 8.7908702,14.7534889 L9.02601675,14.1897618 L10.9191887,14.1897618 L11.1543916,14.7534383 C11.217995,14.9058886 11.3790033,15 11.5500395,15 C11.5993335,15 11.6494726,14.9921641 11.6983159,14.975709 C11.916787,14.9020913 12.0275436,14.6831622 11.9455747,14.4868147 L10.5935665,11.2464218 Z M9.34290687,13.4302947 L9.97263091,11.9211323 L10.6023549,13.4302947 L9.34290687,13.4302947 Z" id="Shape" fill-rule="nonzero"></path>
                        <path d="M18.5,11 C18.2238667,11 18,11.1700253 18,11.3797468 L18,14.6202532 C18,14.8299747 18.2238667,15 18.5,15 C18.7761333,15 19,14.8299747 19,14.6202532 L19,11.3797468 C19,11.1700253 18.7761333,11 18.5,11 Z" id="Path"></path>
                    </g>
                </g>
            </g>
        </g>
    </g>
</svg>