<?xml version="1.0" encoding="UTF-8"?>
<svg width="28px" height="17px" viewBox="0 0 28 17" version="1.1" xmlns="http://www.w3.org/2000/svg" xmlns:xlink="http://www.w3.org/1999/xlink">
    <!-- Generator: sketchtool 55.2 (78181) - https://sketchapp.com -->
    <title>9A339D20-06F7-4167-944A-66A2AC169E15</title>
    <desc>Created with sketchtool.</desc>
    <g id="Page-1" stroke="none" stroke-width="1" fill="none" fill-rule="evenodd">
        <g id="6.-Edit_Billing_PerTransaction" transform="translate(-15.000000, -299.000000)" fill="#FFFFFF">
            <g id="LeftNav_Off">
                <g id="Group" transform="translate(0.000000, 20.000000)">
                    <g id="customer" transform="translate(15.000000, 279.000000)">
                        <path d="M21.8021897,11.9257004 C21.2595228,10.8688678 19.3181169,9.40194447 17.4424381,7.98456094 C16.3962598,7.19459765 15.4077074,6.44771684 14.7774944,5.85904058 C14.6196306,5.71052203 14.383456,5.66315147 14.1749333,5.73312268 C13.7866737,5.8644385 13.5469886,5.96558649 13.3580706,6.04413383 C13.0700488,6.16465381 12.9732675,6.20556704 12.5849539,6.24214175 C12.4132642,6.25828507 12.2589109,6.34439959 12.1632637,6.47783423 C11.3486693,7.61538339 10.5052889,7.51852346 9.94188319,7.34205679 C9.76214639,7.2861101 9.72990394,7.21396964 9.71262155,7.14510828 C9.59164486,6.67266392 10.1988506,5.57274888 10.9857392,4.83767288 C12.8580156,3.08773695 13.8235068,2.64969804 15.8628282,3.50100595 C18.1763454,4.46743591 20.4945073,5.22405316 20.5175684,5.23156989 C20.8206043,5.32948922 21.1466472,5.18097067 21.2514757,4.9000769 C21.35517,4.61918312 21.1973062,4.31246004 20.8965927,4.21454071 C20.8735316,4.20702398 18.6014921,3.46549064 16.3340432,2.51732281 C13.6921607,1.4141791 12.2427087,2.14062852 10.172279,4.07570815 C9.38420224,4.81184356 8.31382854,6.30131711 8.5903467,7.39371542 C8.70900107,7.85864305 9.05929341,8.2030507 9.58003326,8.36337405 C10.8854474,8.76589765 12.0767438,8.38057677 12.9639242,7.28071218 C13.3303107,7.22799415 13.5296522,7.15050621 13.8291776,7.02458831 C13.9374625,6.97938701 14.064218,6.92666898 14.2324512,6.8631551 C14.8915041,7.44108597 15.7809529,8.11370751 16.7176581,8.82078494 C18.4113318,10.1003953 20.3319988,11.5511753 20.7640585,12.390628 C20.9772259,12.8049564 20.7479102,13.0751048 20.5923688,13.1988534 C20.3642413,13.3818279 20.0520242,13.4399438 19.8826568,13.3290594 C19.6960071,13.2095988 19.4529195,13.2020821 19.260491,13.3096874 C19.0669283,13.4172927 18.9586433,13.6206986 18.9828387,13.8295023 C19.0219941,14.1717407 18.6867158,14.3676298 18.5415438,14.4354318 C18.1728349,14.6097796 17.7880318,14.5796622 17.6439939,14.4548038 C17.4826737,14.3149118 17.2510897,14.2739986 17.0460234,14.3450292 C16.8409571,14.4171192 16.6980534,14.5936363 16.6773146,14.7981015 C16.6427498,15.1510853 16.3627752,15.4900951 15.9975228,15.6224703 C15.8212424,15.6848743 15.5654631,15.7225589 15.3362015,15.5266698 C15.1933518,15.4061498 14.9951444,15.3598386 14.8096829,15.4018113 C14.6218989,15.4448433 14.4709481,15.5718711 14.4052751,15.740821 C14.383402,15.7946489 14.3338232,15.9237955 13.7946128,15.9237955 C13.4109439,15.9237955 12.7207826,15.6816457 12.383236,15.4728419 C11.9788282,15.2242348 9.44290834,13.4570961 7.25269013,11.7437349 C6.94506368,11.5015851 6.41276623,10.9828296 5.94268537,10.5243593 C5.52558582,10.1175476 5.1442392,9.74842049 4.94835417,9.59344461 C4.70294431,9.39972477 4.34001423,9.42878274 4.13608209,9.65695849 C3.93101579,9.88402438 3.96093592,10.224144 4.20407747,10.4156945 C4.38268012,10.5566964 4.72832781,10.8978249 5.10967443,11.2691213 C5.62355533,11.7706236 6.15466462,12.2893791 6.51186991,12.5692135 C8.65720792,14.2470594 11.2357397,16.0583399 11.7495666,16.3736392 C12.1735791,16.6341016 13.0872232,17 13.7946668,17 C14.3626632,17 14.7993674,16.8783702 15.1023492,16.6405589 C15.5078912,16.788018 15.9687908,16.7890774 16.412354,16.6276442 C16.9366043,16.4382125 17.3674758,16.0561707 17.6117515,15.5934123 C18.0656841,15.6838149 18.5853438,15.620301 19.057693,15.3986331 C19.5197268,15.1812532 19.8538169,14.8487008 20.0197277,14.4601512 C20.478305,14.4827519 20.9506542,14.3310047 21.3412361,14.0178242 C22.0026654,13.4894332 22.1846705,12.6672337 21.8021897,11.9257004 Z" id="Path"></path>
                        <path d="M11.4545315,2 L6.54546849,2 C6.24437929,2 6,2.22400862 6,2.5 C6,2.77599138 6.24437929,3 6.54546849,3 L11.4545315,3 C11.7556207,3 12,2.77599138 12,2.5 C12,2.22400862 11.7556207,2 11.4545315,2 Z" id="Path"></path>
                        <path d="M23.896398,10.2238063 C23.7075095,9.99284631 23.3297896,9.92930275 23.0507693,10.0866487 L21.2693228,11.0771055 C20.9903025,11.2324184 20.9159351,11.5461175 21.1036242,11.7770775 C21.2218008,11.921327 21.4143449,12 21.6105444,12 C21.7263222,12 21.8444989,11.972767 21.94931,11.9142824 L23.7307564,10.9238256 C24.0097197,10.7684654 24.0840299,10.4548136 23.896398,10.2238063 Z" id="Path"></path>
                        <path d="M20.7619477,12.8838584 C20.3145494,12.5314172 18.3136475,10.483029 17.0763748,9.1932445 C16.8376492,8.94326673 16.441511,8.93453772 16.1927676,9.17449763 C15.942794,9.41322727 15.9352954,9.80937203 16.1740211,10.0581195 C16.4952316,10.393044 19.328422,13.3463202 19.9870705,13.8662528 C20.1007801,13.9562378 20.2382744,14 20.3732496,14 C20.5569658,14 20.7406821,13.9175138 20.8656396,13.7612704 C21.0794089,13.4912569 21.0331869,13.0975726 20.7619477,12.8838584 Z" id="Path"></path>
                        <path d="M17.7860353,13.9827491 C17.1014388,13.4352541 15.3814562,11.6076634 14.9928449,11.1847866 C14.7779677,10.951623 14.4179638,10.9379075 14.1848185,11.1504978 C13.9527982,11.3642132 13.9368337,11.7265489 14.1505324,11.9585874 C14.1711041,11.9802857 16.2237152,14.196518 17.0717063,14.8754354 C17.1768682,14.9588535 17.3037266,15 17.4282815,15 C17.5951583,15 17.7619815,14.9256898 17.8751256,14.7862846 C18.0717884,14.539352 18.0317701,14.1793201 17.7860353,13.9827491 Z" id="Path"></path>
                        <path d="M14.7969459,14.9911382 C13.9821239,14.304478 12.3148218,12.5300659 11.9891287,12.1815675 C11.7731428,11.9507884 11.4108628,11.9382024 11.1811634,12.1541461 C10.9503392,12.3700898 10.9388756,12.7311206 11.1537367,12.9619532 C11.6222954,13.4635188 13.2176023,15.154542 14.059851,15.8651959 C14.1672547,15.9554402 14.297532,16 14.4278092,16 C14.5900665,16 14.7523774,15.9303217 14.8655128,15.7966423 C15.0689103,15.554402 15.0380552,15.1944958 14.7969459,14.9911382 Z" id="Path"></path>
                        <path d="M6.81818078,1.25040493 C5.81830271,0.357159131 1.82004826,0.0678326766 0.618367958,0.000747715467 C0.452715129,-0.00693534311 0.299859513,0.0447319367 0.183207983,0.149252472 C0.0665017633,0.252638596 0,0.397843246 0,0.549648108 L0,10.4499652 C0,10.7535749 0.261358492,11 0.58336703,11 L4.08345983,11 C4.33546652,11 4.55947246,10.8471123 4.63762297,10.6204878 C4.72277366,10.3740628 6.73303009,4.55711083 6.99783398,1.69700204 C7.01303751,1.5297795 6.94768422,1.36477422 6.81818078,1.25040493 Z M3.65759698,9.89998196 L1.16667937,9.89998196 L1.16667937,1.13928418 C3.04158065,1.27897147 5.06463429,1.58258119 5.79965378,1.91919197 C5.49049714,4.32826913 4.09160849,8.60850622 3.65759698,9.89998196 Z" id="Shape" fill-rule="nonzero"></path>
                        <path d="M27.4270969,1 C22.9287846,1 20.4332968,2.10550173 20.3290496,2.1517018 C20.1801174,2.21878472 20.0689418,2.3431021 20.0231289,2.49381952 C19.977316,2.64453694 20.0001956,2.8062372 20.0861284,2.94040303 C20.7942145,4.03492193 23.0112801,10.1135314 23.4375067,11.5963166 C23.5062529,11.8349997 23.7319876,12 23.9897859,12 L27.4270969,12 C27.7433295,12 28,11.7535824 28,11.449982 L28,1.54996648 C28,1.2452832 27.7433295,1 27.4270969,1 Z M26.8542476,10.9000155 L24.4183219,10.9000155 C23.8752267,9.20159563 22.2711304,4.77298871 21.3763016,2.94262022 C22.2505065,2.65773697 24.1284599,2.16820183 26.8542476,2.1066361 L26.8542476,10.9000155 Z" id="Shape" fill-rule="nonzero"></path>
                    </g>
                </g>
            </g>
        </g>
    </g>
</svg>