<?xml version="1.0" encoding="UTF-8"?>
<svg width="24px" height="23px" viewBox="0 0 24 23" version="1.1" xmlns="http://www.w3.org/2000/svg" xmlns:xlink="http://www.w3.org/1999/xlink">
    <!-- Generator: sketchtool 55.2 (78181) - https://sketchapp.com -->
    <title>1781CD38-48E3-4C67-B811-DF2147F73AC0</title>
    <desc>Created with sketchtool.</desc>
    <g id="Page-1" stroke="none" stroke-width="1" fill="none" fill-rule="evenodd">
        <g id="6.-Edit_Billing_PerTransaction" transform="translate(-17.000000, -362.000000)" fill="#FFFFFF" fill-rule="nonzero">
            <g id="LeftNav_Off">
                <g id="Group" transform="translate(0.000000, 20.000000)">
                    <g id="information" transform="translate(17.000000, 342.000000)">
                        <path d="M11.9999512,0 C5.3830749,0 0,4.95285165 0,11.040787 C0,13.8336195 1.12882817,16.4846787 3.18366649,18.530372 L2.51442568,22.4988525 C2.48718147,22.6606159 2.56095566,22.8226488 2.70533044,22.9182423 C2.78720954,22.9724629 2.88388254,23 2.98104379,23 C3.05525741,23 3.12976397,22.9839629 3.19816744,22.9513497 L7.06708927,21.1079392 C8.62093687,21.7541841 10.2791718,22.081619 11.9999512,22.081619 C18.6167298,22.081619 24,17.1287673 24,11.040832 C24,4.95285165 18.6168274,0 11.9999512,0 Z M11.9999512,21.2125621 C10.341228,21.2125621 8.74597704,20.8825217 7.25838463,20.2316949 C7.12504425,20.1732965 6.96963508,20.1757672 6.83844298,20.2382534 L3.59042547,21.785809 L4.15239831,18.4536456 C4.17500417,18.3196888 4.12832771,18.1838004 4.02633281,18.0860057 C2.03897029,16.1825348 0.944465918,13.6804362 0.944465918,11.0406972 C0.944465918,5.43203236 5.90393731,0.868967053 11.9999512,0.868967053 C18.095965,0.868967053 23.0554853,5.43198744 23.0554853,11.0407421 C23.0554853,16.6494968 18.0960139,21.2125621 11.9999512,21.2125621 Z" id="Shape"></path>
                        <path d="M12.5,3 C11.1215045,3 10,4.12150445 10,5.5 C10,6.87849555 11.1215045,8 12.5,8 C13.8785932,8 15,6.87849555 15,5.5 C15,4.12140681 13.8784955,3 12.5,3 Z M12.5,7.05561631 C11.6422239,7.05561631 10.9443837,6.35777613 10.9443837,5.5 C10.9443837,4.64222387 11.6422239,3.94438369 12.5,3.94438369 C13.3578249,3.94438369 14.0556163,4.64222387 14.0556163,5.5 C14.0556163,6.35777613 13.3577761,7.05561631 12.5,7.05561631 Z" id="Shape"></path>
                        <path d="M15.4903506,15.6569952 L14.9100995,15.6569952 L14.9100995,8.44013251 C14.9100995,8.1970403 14.6819085,8 14.4005028,8 L9.50959671,8 C9.22813831,8 9,8.19708581 9,8.44013251 L9,9.90282682 C9,10.145919 9.228191,10.3429593 9.50959671,10.3429593 L10.0898478,10.3429593 L10.0898478,15.6569952 L9.50959671,15.6569952 C9.22813831,15.6569952 9,15.854081 9,16.0971277 L9,17.559822 C9,17.8029597 9.228191,18 9.50959671,18 L15.4904033,18 C15.7718617,18 16,17.8029142 16,17.5598675 L16,16.0971732 C16,15.854081 15.7717563,15.6569952 15.4903506,15.6569952 Z M14.9807012,17.119735 L10.019088,17.119735 L10.019088,16.5372602 L10.5993391,16.5372602 C10.8807975,16.5372602 11.1089359,16.3401744 11.1089359,16.0971277 L11.1089359,9.90282682 C11.1089359,9.65973461 10.8807449,9.46269431 10.5993391,9.46269431 L10.019088,9.46269431 L10.019088,8.88031053 L13.8908534,8.88031053 L13.8908534,16.0972187 C13.8908534,16.3403109 14.1190444,16.5373512 14.4004501,16.5373512 L14.9807012,16.5373512 L14.9807012,17.119735 Z" id="Shape"></path>
                    </g>
                </g>
            </g>
        </g>
    </g>
</svg>