<?xml version="1.0" encoding="UTF-8"?>
<svg width="29px" height="29px" viewBox="0 0 29 29" version="1.1" xmlns="http://www.w3.org/2000/svg" xmlns:xlink="http://www.w3.org/1999/xlink">
    <!-- Generator: sketchtool 55.2 (78181) - https://sketchapp.com -->
    <title>4C386D88-A452-42F3-A63C-399D076D67D6</title>
    <desc>Created with sketchtool.</desc>
    <g id="Page-1" stroke="none" stroke-width="1" fill="none" fill-rule="evenodd">
        <g id="6.-Edit_Billing_PerTransaction" transform="translate(-15.000000, -225.000000)">
            <g id="LeftNav_Off">
                <g id="Group" transform="translate(0.000000, 20.000000)">
                    <g id="invoice" transform="translate(15.000000, 205.000000)">
                        <path d="M21.4210832,0 L0.578977899,0 C0.259263885,0 0,0.232466579 0,0.519257504 L0,22.4807089 C0,22.6678322 0.112229633,22.8403339 0.29370214,22.9324991 C0.474930405,23.0247738 0.697802091,23.0222547 0.876771108,22.9259276 L3.4377805,21.5478854 L5.4420381,22.8961368 C5.63047153,23.0229119 5.8857054,23.0345763 6.08726689,22.9259276 L8.64827628,21.5478854 L10.6525339,22.8961368 C10.755177,22.9650827 10.8772374,23 10.9999695,23 C11.1027347,23 11.2059273,22.9754876 11.2977627,22.9259276 L14.192469,21.3682646 C14.4666928,21.2207346 14.5555972,20.9017433 14.3910385,20.6559695 C14.2265409,20.4101956 13.87074,20.3302972 13.5968215,20.477882 L11.0358121,21.8559242 L9.03155452,20.5076728 C8.84287685,20.3808977 8.58788722,20.3691238 8.38632573,20.477882 L5.82531634,21.8559242 L3.82105874,20.5076728 C3.63238106,20.3808977 3.37739143,20.3691238 3.17582994,20.477882 L1.1579558,21.563657 L1.1579558,1.03846025 L20.8421053,1.03846025 L20.8421053,13.1345667 C20.8421053,13.4213028 21.1013081,13.6537694 21.4210221,13.6537694 C21.7407361,13.6537694 22,13.4213028 22,13.1345667 L22,0.519257504 C22,0.232466579 21.7407972,0 21.4210832,0 Z" id="Path" fill="#FFFFFF"></path>
                        <circle id="Oval" stroke="#FFFFFF" cx="22.5" cy="22.5" r="5.5"></circle>
                        <path d="M24.9105932,20.66537 C24.8775424,20.635873 24.8351695,20.6210488 24.7834746,20.6210488 L23.8390678,20.6210488 C23.7764407,20.3483907 23.6586441,20.1114316 23.4855085,19.9111545 L24.7722034,19.9111545 C24.8238983,19.9111545 24.8662712,19.8963304 24.899322,19.8668334 C24.9324576,19.8372608 24.9489831,19.7994441 24.9489831,19.7533835 L24.9489831,19.2504975 C24.9489831,19.2044369 24.9324576,19.1666202 24.899322,19.1370476 C24.8662712,19.1075506 24.8238983,19.0927264 24.7722034,19.0927264 L20.1767797,19.0927264 C20.1251695,19.0927264 20.0827966,19.1075506 20.049661,19.1370476 C20.0165254,19.1666202 20,19.2044369 20,19.2504975 L20,19.9060871 C20,19.9489712 20.0175424,19.9858803 20.0526271,20.0171925 C20.0873729,20.0482021 20.1288136,20.0638582 20.1767797,20.0638582 L20.9775424,20.0638582 C21.7544915,20.0638582 22.2480508,20.2493867 22.4579661,20.6207463 L20.1767797,20.6207463 C20.1251695,20.6207463 20.0827966,20.6355704 20.049661,20.66537 C20.0165254,20.6949426 20,20.7324567 20,20.7785174 L20,21.2814033 C20,21.327464 20.0165254,21.3652807 20.049661,21.3948533 C20.0827966,21.4243503 20.1251695,21.4391744 20.1767797,21.4391744 L22.5354237,21.4391744 C22.454322,21.7088828 22.2655932,21.9142273 21.9689831,22.0554347 C21.6727119,22.1966421 21.2814407,22.2675861 20.7955085,22.2675861 L20.1767797,22.2675861 C20.1288136,22.2675861 20.0873729,22.2829397 20.0526271,22.3142519 C20.0175424,22.3455641 20,22.3824731 20,22.4253572 L20,23.0513742 C20,23.0941826 20.0165254,23.1302597 20.049661,23.1598323 C20.7567797,23.8301704 21.6737288,24.7684773 22.8005932,25.9747531 C22.8337288,26.0140824 22.879661,26.0338983 22.9386441,26.0338983 L24.0158475,26.0338983 C24.0929661,26.0338983 24.1466102,26.0043257 24.175678,25.9449535 C24.2127966,25.8858839 24.2055085,25.8299909 24.1538983,25.7774257 C23.0786441,24.6009495 22.2334746,23.7199727 21.6184746,23.1350246 C22.2444068,23.0693749 22.7525424,22.8886113 23.1428814,22.592885 C23.5331356,22.2970831 23.7708475,21.9124121 23.8555932,21.4394769 L24.7834746,21.4394769 C24.8351695,21.4394769 24.8775424,21.4246528 24.9105932,21.3948533 C24.9437288,21.3652807 24.9602542,21.327464 24.9602542,21.2817059 L24.9602542,20.7788199 C24.9602542,20.7327592 24.9437288,20.6949426 24.9105932,20.66537 Z" id="rupee-indian" fill="#FFFFFF"></path>
                        <path d="M16.428537,5 L13.5714027,5 C13.2558385,5 13,5.22385698 13,5.50002637 C13,5.77619575 13.2558385,6 13.5714027,6 L16.428537,6 C16.7441013,6 17,5.77614302 17,5.50002637 C17,5.22390972 16.7441615,5 16.428537,5 Z" id="Path" fill="#FFFFFF"></path>
                        <path d="M16.428537,8 L13.5714027,8 C13.2558385,8 13,8.22385698 13,8.50002637 C13,8.77619575 13.2558385,9 13.5714027,9 L16.428537,9 C16.7441013,9 17,8.77614302 17,8.50002637 C17,8.22390972 16.7441615,8 16.428537,8 Z" id="Path" fill="#FFFFFF"></path>
                        <path d="M16.428537,11 L13.5714027,11 C13.2558385,11 13,11.223857 13,11.5000264 C13,11.7761957 13.2558385,12 13.5714027,12 L16.428537,12 C16.7441013,12 17,11.776143 17,11.5000264 C17,11.2239097 16.7441615,11 16.428537,11 Z" id="Path" fill="#FFFFFF"></path>
                        <path d="M16.428537,14 L13.5714027,14 C13.2558385,14 13,14.223857 13,14.5000264 C13,14.7761957 13.2558385,15 13.5714027,15 L16.428537,15 C16.7441013,15 17,14.776143 17,14.5000264 C17,14.2239097 16.7441615,14 16.428537,14 Z" id="Path" fill="#FFFFFF"></path>
                        <path d="M11.437474,5 L3.56252595,5 C3.25189677,5 3,5.22385698 3,5.50002637 C3,5.77619575 3.25183745,6 3.56252595,6 L11.437474,6 C11.7481032,6 12,5.77614302 12,5.50002637 C12,5.22390972 11.7481032,5 11.437474,5 Z" id="Path" fill="#FFFFFF"></path>
                        <path d="M11.437474,8 L3.56252595,8 C3.25189677,8 3,8.22385698 3,8.50002637 C3,8.77619575 3.25183745,9 3.56252595,9 L11.437474,9 C11.7481032,9 12,8.77614302 12,8.50002637 C12,8.22390972 11.7481032,8 11.437474,8 Z" id="Path" fill="#FFFFFF"></path>
                        <path d="M11.437474,11 L3.56252595,11 C3.25189677,11 3,11.223857 3,11.5000264 C3,11.7761957 3.25183745,12 3.56252595,12 L11.437474,12 C11.7481032,12 12,11.776143 12,11.5000264 C12,11.2239097 11.7481032,11 11.437474,11 Z" id="Path" fill="#FFFFFF"></path>
                        <path d="M11.437474,14 L3.56252595,14 C3.25189677,14 3,14.223857 3,14.5000264 C3,14.7761957 3.25183745,15 3.56252595,15 L11.437474,15 C11.7481032,15 12,14.776143 12,14.5000264 C12,14.2239097 11.7481032,14 11.437474,14 Z" id="Path" fill="#FFFFFF"></path>
                    </g>
                </g>
            </g>
        </g>
    </g>
</svg>