<?xml version="1.0" encoding="UTF-8"?>
<svg width="61px" height="42px" viewBox="0 0 61 42" version="1.1" xmlns="http://www.w3.org/2000/svg" xmlns:xlink="http://www.w3.org/1999/xlink">
    <!-- Generator: Sketch 51.1 (57501) - http://www.bohemiancoding.com/sketch -->
    <title>Group 2</title>
    <desc>Created with Sketch.</desc>
    <defs></defs>
    <g id="Symbols" stroke="none" stroke-width="1" fill="none" fill-rule="evenodd">
        <g id="LeftNav_On" transform="translate(-74.000000, -12.000000)">
            <g id="Group-10">
                <g id="Group-2" transform="translate(75.000000, 13.000000)">
                    <g id="Group" stroke="#44A3DF">
                        <polyline id="Path-3" points="0.220780508 32.7271264 0.220780508 40.3379723 8.00177002 40.3379723"></polyline>
                        <polyline id="Path-3" transform="translate(26.216538, 36.532549) scale(-1, 1) translate(-26.216538, -36.532549) " points="22.3260437 32.7271264 22.3260437 40.3379723 30.1070332 40.3379723"></polyline>
                        <polyline id="Path-3" transform="translate(4.111275, 3.900970) scale(1, -1) translate(-4.111275, -3.900970) " points="0.220780508 0.0955474207 0.220780508 7.70639335 8.00177002 7.70639335"></polyline>
                        <polyline id="Path-3" transform="translate(26.216538, 3.900970) scale(-1, -1) translate(-26.216538, -3.900970) " points="22.3260437 0.0955474207 22.3260437 7.70639335 30.1070332 7.70639335"></polyline>
                    </g>
                    <path d="M12.7746711,16.8219572 L11.0538651,17.2660362 C10.609784,15.7857656 9.61061632,15.0086352 8.05633224,14.9346217 C5.87293316,15.0826488 4.70723758,16.544394 4.55921053,19.3199013 C4.67023082,22.0954086 5.81742329,23.575657 8.00082237,23.7606908 C9.77714704,23.723684 10.8503271,22.7615226 11.2203947,20.8741776 L12.9412007,21.3737664 C12.3860992,23.8902264 10.7393229,25.1484375 8.00082237,25.1484375 C4.63320685,24.9634037 2.85690882,23.0390808 2.671875,19.3754112 C2.85690882,15.637728 4.65170995,13.6578958 8.05633224,13.4358553 C10.4247651,13.5098688 11.997529,14.6385582 12.7746711,16.8219572 Z M23.6657072,24.9819079 L15.8943257,24.9819079 L15.8943257,13.6023849 L17.6151316,13.6023849 L17.6151316,23.6496711 L23.6657072,23.6496711 L23.6657072,24.9819079 Z M35.2228618,24.9819079 L26.5078125,24.9819079 L26.5078125,13.6023849 L35.0008224,13.6023849 L35.0008224,15.0456414 L28.2841283,15.0456414 L28.2841283,18.4317434 L34.6122533,18.4317434 L34.6122533,19.875 L28.2841283,19.875 L28.2841283,23.5941612 L35.2228618,23.5941612 L35.2228618,24.9819079 Z M39.8967928,20.5411184 L44.8371711,20.5411184 L42.3947368,14.6570724 L42.339227,14.6570724 L39.8967928,20.5411184 Z M46.6689967,24.8153783 L45.1702303,21.2627467 L39.6192434,21.2627467 L38.0649671,24.8153783 L37.1768092,24.8153783 L41.895148,13.7134046 L42.7833059,13.7134046 L47.6126645,24.8153783 L46.6689967,24.8153783 Z M50.9210526,14.4905428 L50.9210526,19.0978618 L54.9177632,19.0978618 C57.0271487,19.1348686 58.0633226,18.3577382 58.0263158,16.7664474 C58.0263158,15.24917 56.9901419,14.4905428 54.9177632,14.4905428 L50.9210526,14.4905428 Z M59.8026316,24.8153783 L58.6369243,24.8153783 L54.5291941,19.8194901 L50.9210526,19.8194901 L50.9210526,24.8153783 L50.0884046,24.8153783 L50.0884046,13.7689145 L55.1953125,13.7689145 C57.5637454,13.842928 58.8034534,14.8605987 58.9144737,16.8219572 C58.9144737,18.7093022 57.7857843,19.7084698 55.5283717,19.8194901 L59.8026316,24.8153783 Z" id="CLEAR" fill="#000000"></path>
                </g>
            </g>
        </g>
    </g>
</svg>