<?xml version="1.0" encoding="UTF-8"?>
<svg width="159px" height="68px" viewBox="0 0 159 68" version="1.1" xmlns="http://www.w3.org/2000/svg" xmlns:xlink="http://www.w3.org/1999/xlink">
    <!-- Generator: Sketch 51.2 (57519) - http://www.bohemiancoding.com/sketch -->
    <title>Group 3</title>
    <desc>Created with Sketch.</desc>
    <defs></defs>
    <g id="IBL_Latest_13nd-AUG" stroke="none" stroke-width="1" fill="none" fill-rule="evenodd">
        <g id="Login-AA" transform="translate(-969.000000, -99.000000)">
            <g id="Group-3" transform="translate(969.000000, 99.000000)">
                <g>
                    <g>
                        <g>
                            <g id="GRID-LOGO">
                                <g id="Rectangle">
                                    <rect fill="#4A4A4A" x="0" y="0" width="15.0828076" height="15.0828076" rx="1"></rect>
                                    <rect fill="#6AA190" x="17.5966088" y="0" width="15.0828076" height="15.0828076" rx="1"></rect>
                                    <rect fill="#4A4A4A" x="35.1932177" y="0" width="15.0828076" height="15.0828076" rx="1"></rect>
                                    <rect fill="#4A4A4A" x="52.7898265" y="0" width="15.0828076" height="15.0828076" rx="1"></rect>
                                    <rect fill="#4A4A4A" x="0" y="17.5966088" width="15.0828076" height="15.0828076" rx="1"></rect>
                                    <rect fill="#8064A2" x="17.5966088" y="17.5966088" width="15.0828076" height="15.0828076" rx="1"></rect>
                                    <rect fill="#44A3DF" x="35.1932177" y="17.5966088" width="15.0828076" height="15.0828076" rx="1"></rect>
                                    <rect fill="#996060" x="52.7898265" y="17.5966088" width="15.0828076" height="15.0828076" rx="1"></rect>
                                    <rect fill="#AA8133" x="0" y="34.6904574" width="15.0828076" height="15.0828076" rx="1"></rect>
                                    <rect fill="#00C077" x="17.5966088" y="34.6904574" width="15.0828076" height="15.0828076" rx="1"></rect>
                                    <rect fill="#DDE504" x="35.1932177" y="34.6904574" width="15.0828076" height="15.0828076" rx="1"></rect>
                                    <rect fill="#4A4A4A" x="52.7898265" y="34.6904574" width="15.0828076" height="15.0828076" rx="1"></rect>
                                    <rect fill="#4A4A4A" x="0" y="52.2870662" width="15.0828076" height="15.0828076" rx="1"></rect>
                                    <rect fill="#4A4A4A" x="17.5966088" y="52.2870662" width="15.0828076" height="15.0828076" rx="1"></rect>
                                    <rect fill="#F0601A" x="35.1932177" y="52.2870662" width="15.0828076" height="15.0828076" rx="1"></rect>
                                    <rect fill="#4A4A4A" x="52.7898265" y="52.2870662" width="15.0828076" height="15.0828076" rx="1"></rect>
                                </g>
                            </g>
                            <g id="Group-2" transform="translate(81.726450, 15.543067)" fill="#000000">
                                <path d="M9.62667391,0.220611277 L9.62667391,10.1280632 C9.62667391,13.4171768 7.09967201,14.7007333 4.65289239,14.7007333 C2.56711304,14.7007333 1.40388995,13.7180103 0.802222826,13.0160653 L2.94816888,10.6093969 C3.32922473,11.070675 3.81055842,11.4717864 4.63283682,11.4717864 C5.45511522,11.4717864 6.13700462,11.070675 6.13700462,9.7670629 L6.13700462,0.220611277 L9.62667391,0.220611277 Z M25.8917417,7.42056114 C25.8917417,11.491842 22.6026281,14.7809556 18.5313473,14.7809556 C14.4600664,14.7809556 11.1709528,11.491842 11.1709528,7.42056114 C11.1709528,3.3492803 14.4600664,0.0601667119 18.5313473,0.0601667119 C22.6026281,0.0601667119 25.8917417,3.3492803 25.8917417,7.42056114 Z M14.620511,7.40050557 C14.620511,9.5665072 16.3653456,11.3113418 18.5313473,11.3113418 C20.6973489,11.3113418 22.4421836,9.5665072 22.4421836,7.40050557 C22.4421836,5.23450394 20.6973489,3.48966929 18.5313473,3.48966929 C16.3653456,3.48966929 14.620511,5.23450394 14.620511,7.40050557 Z M30.8254121,7.38045 C30.8254121,9.34589592 32.1490797,11.070675 34.8164706,11.070675 C36.621472,11.070675 37.5039171,10.6695636 38.2058621,10.2483966 L38.2058621,13.9787327 C37.6242505,14.339733 36.621472,14.7809556 34.8565818,14.7809556 C29.7023001,14.7809556 27.1151315,11.070675 27.1151315,7.38045 C27.1151315,3.71028057 29.6822446,0.0601667119 34.7161928,0.0601667119 C36.7217498,0.0601667119 37.3835837,0.441222554 38.2058621,0.882445108 L38.2058621,4.61278125 C37.3835837,4.15150312 36.6014164,3.690225 34.8164706,3.690225 C32.1490797,3.690225 30.8254121,5.41500407 30.8254121,7.38045 Z M43.9417553,0.220611277 L47.9328138,0.220611277 L52.3450394,14.5402887 L48.8754257,14.5402887 L48.2336474,12.4745649 L43.6810329,12.4745649 L43.019199,14.5402887 L39.5295297,14.5402887 L43.9417553,0.220611277 Z M45.9874235,4.89355924 L44.6236447,9.28572921 L47.2910356,9.28572921 L45.9874235,4.89355924 Z M62.6937138,0.220611277 L62.6937138,3.28911359 L59.8257672,3.28911359 L59.8257672,14.5402887 L56.3561535,14.5402887 L56.3561535,3.28911359 L53.4882069,3.28911359 L53.4882069,0.220611277 L62.6937138,0.220611277 Z M68.3894959,0.220611277 L72.3805545,0.220611277 L76.79278,14.5402887 L73.3231663,14.5402887 L72.681388,12.4745649 L68.1287735,12.4745649 L67.4669396,14.5402887 L63.9772704,14.5402887 L68.3894959,0.220611277 Z M70.4351641,4.89355924 L69.0713853,9.28572921 L71.7387762,9.28572921 L70.4351641,4.89355924 Z M10.9904527,27.0750204 C10.2684522,26.1524641 9.16539578,25.550797 7.90189483,25.550797 C5.7358932,25.550797 3.99105856,27.2956316 3.99105856,29.4616333 C3.99105856,31.6276349 5.7358932,33.3724696 7.90189483,33.3724696 C9.38600706,33.3724696 10.6695636,32.5501912 11.3313974,31.3268013 L8.20272839,31.3268013 L8.20272839,28.6594104 L15.1620114,28.6594104 C15.182067,28.9201329 15.2021225,29.2009109 15.2021225,29.4816888 C15.2021225,33.5529697 11.913009,36.8420833 7.84172812,36.8420833 C3.77044728,36.8420833 0.481333695,33.5529697 0.481333695,29.4816888 C0.481333695,25.410408 3.77044728,22.1212944 7.84172812,22.1212944 C10.2684522,22.1212944 12.4344538,23.3045731 13.7982326,25.1496856 L10.9904527,27.0750204 Z M20.2561264,36.6014164 L16.7664571,36.6014164 L16.7664571,22.281739 L22.1212944,22.281739 C24.6884075,22.281739 26.7140201,23.9864625 26.7140201,26.7942424 C26.7140201,28.9401884 25.5106859,30.4443562 23.8059624,31.0259678 L27.4159651,36.6014164 L23.6054066,36.6014164 L20.2561264,31.3067458 L20.2561264,36.6014164 Z M20.2561264,28.2181879 L21.8004053,28.2181879 C22.8031838,28.2181879 23.2444064,27.6365763 23.2444064,26.7942424 C23.2444064,25.9519084 22.6828504,25.3502413 21.8004053,25.3502413 L20.2561264,25.3502413 L20.2561264,28.2181879 Z M32.9914137,36.6014164 L29.5017444,36.6014164 L29.5017444,22.281739 L32.9914137,22.281739 L32.9914137,36.6014164 Z M47.411369,29.4616333 C47.411369,33.0315249 45.1049784,36.6014164 40.4721416,36.6014164 L35.5585268,36.6014164 L35.5585268,22.281739 L40.4721416,22.281739 C45.0849228,22.281739 47.411369,25.8716861 47.411369,29.4616333 Z M39.048196,33.5529697 L39.9506967,33.5529697 C42.3573652,33.5529697 43.7411996,31.6075793 43.7411996,29.4816888 C43.7411996,27.3557984 42.3373096,25.3502413 39.9506967,25.3502413 L39.048196,25.3502413 L39.048196,33.5529697 Z" id="JOCATA-GRID"></path>
                                <path d="M55.1668582,23.0659118 L55.1668582,24.1398876 L54.1630769,24.1398876 L54.1630769,28.0777989 L52.9487121,28.0777989 L52.9487121,24.1398876 L51.9449307,24.1398876 L51.9449307,23.0659118 L55.1668582,23.0659118 Z M59.8488311,25.2770385 L58.9152443,28.0777989 L58.1992605,28.0777989 L57.2586542,25.2770385 L56.8304678,28.0777989 L55.6090835,28.0777989 L56.4093008,23.0659118 L57.7008795,23.0659118 L58.5572524,25.7754194 L59.4697809,23.0659118 L60.7403013,23.0659118 L61.470324,28.0777989 L60.2559592,28.0777989 L59.8488311,25.2770385 Z" id="TM"></path>
                            </g>
                        </g>
                    </g>
                </g>
            </g>
        </g>
    </g>
</svg>