<?xml version="1.0" encoding="UTF-8"?>
<svg width="27px" height="18px" viewBox="0 0 27 18" version="1.1" xmlns="http://www.w3.org/2000/svg" xmlns:xlink="http://www.w3.org/1999/xlink">
    <!-- Generator: sketchtool 55.2 (78181) - https://sketchapp.com -->
    <title>1E9997CC-2400-455F-9CFA-0A7322878339</title>
    <desc>Created with sketchtool.</desc>
    <g id="Page-1" stroke="none" stroke-width="1" fill="none" fill-rule="evenodd">
        <g id="6.-Edit_Billing_PerTransaction" transform="translate(-17.000000, -90.000000)" fill-rule="nonzero" stroke="#FFFFFF" stroke-width="1.28571429">
            <g id="LeftNav_Off">
                <g id="Group" transform="translate(0.000000, 20.000000)">
                    <path d="M34.969697,77.8571429 C36.8476768,77.8571429 38.3523232,76.3257143 38.3523232,74.4285714 C38.3523232,72.5314286 36.8476768,71 34.969697,71 C33.0917172,71 31.5757576,72.5314286 31.5757576,74.4285714 C31.5757576,76.3257143 33.0917172,77.8571429 34.969697,77.8571429 Z M25.9191919,77.8571429 C27.7971717,77.8571429 29.3018182,76.3257143 29.3018182,74.4285714 C29.3018182,72.5314286 27.7971717,71 25.9191919,71 C24.0412121,71 22.5252525,72.5314286 22.5252525,74.4285714 C22.5252525,76.3257143 24.0412121,77.8571429 25.9191919,77.8571429 Z M25.9191919,80.1428571 C23.2832323,80.1428571 18,81.48 18,84.1428571 L18,87 L33.8383838,87 L33.8383838,84.1428571 C33.8383838,81.48 28.5551515,80.1428571 25.9191919,80.1428571 Z M34.969697,80.1428571 C34.6416162,80.1428571 34.2682828,80.1657143 33.8723232,80.2 C35.1846465,81.16 36.1010101,82.4514286 36.1010101,84.1428571 L36.1010101,87 L42.8888889,87 L42.8888889,84.1428571 C42.8888889,81.48 37.6056566,80.1428571 34.969697,80.1428571 Z" id="Shape"></path>
                </g>
            </g>
        </g>
    </g>
</svg>